<svg xmlns="http://www.w3.org/2000/svg" width="66" height="56" viewBox="0 0 66 56">
  <path fill="#ee4e8b" d="M46.1644346,75.5801495 L45.8697885,75.8704008 C38.0536436,83.7483179 38.0536436,96.5578053 45.8390691,104.405093 L63.21246,121.926871 C68.5994495,127.357722 77.4018705,127.357722 82.7849486,121.926234 L100.161501,104.404518 C107.825707,96.6794138 107.956965,84.1208596 100.481176,76.2313819 L100.19342,75.9341598 L99.92132,75.6648291 C92.5227653,68.4774538 80.9568738,68.1388977 73.1923444,74.6230069 L73,74.786 L72.8134025,74.6279733 C65.0786539,68.165027 53.5485282,68.4609644 46.1644346,75.5801495 Z M68.5195747,81.5347327 L70.1593791,83.1887682 C71.7242245,84.7671941 74.2757755,84.7671941 75.8406209,83.1887682 L77.480732,81.5344233 C82.1538702,76.8217558 89.8075742,76.8217558 94.4810192,81.5347327 L94.7055624,81.7667435 C99.1795722,86.488707 99.0998553,94.1158535 94.4817357,98.770668 L77.1037211,116.293859 C74.8492406,118.568613 71.1494394,118.568613 68.8927608,116.293561 L51.5190956,98.7715062 C46.8272452,94.0423747 46.8272452,86.2637484 51.5182643,81.5354551 L51.7496144,81.3076007 C56.4093356,76.815409 63.918972,76.8952142 68.5195747,81.5347327 Z" transform="translate(-40 -70)"/>
</svg>
