<?xml version="1.0" standalone="no"?>
<!DOCTYPE svg PUBLIC "-//W3C//DTD SVG 20010904//EN"
 "http://www.w3.org/TR/2001/REC-SVG-20010904/DTD/svg10.dtd">
<svg version="1.0" xmlns="http://www.w3.org/2000/svg"
 width="700.000000pt" height="700.000000pt" viewBox="0 0 700.000000 700.000000"
 preserveAspectRatio="xMidYMid meet">
<metadata>
Created by potrace 1.14, written by Peter Selinger 2001-2017
</metadata>
<g transform="translate(0.000000,700.000000) scale(0.100000,-0.100000)"
fill="#000000" stroke="none">
<path d="M1828 6575 c-2 -1 -37 -5 -78 -9 -41 -3 -84 -7 -95 -9 -11 -3 -40 -8
-65 -12 -196 -30 -492 -143 -675 -257 -144 -90 -364 -281 -460 -398 -252 -309
-401 -654 -443 -1030 -9 -85 -8 -378 1 -455 50 -386 222 -767 476 -1049 110
-123 2892 -2896 2919 -2910 18 -9 51 -18 74 -20 95 -8 80 -20 740 635 1571
1562 2286 2281 2352 2364 97 122 167 234 237 379 50 105 114 273 125 329 2 10
5 26 8 35 3 9 8 31 10 47 3 17 10 55 16 85 18 95 25 190 25 345 -1 137 -10
289 -20 305 -2 3 -6 24 -9 46 -15 121 -84 328 -162 490 -264 545 -795 950
-1379 1053 -136 24 -169 26 -370 26 -211 -1 -292 -10 -465 -51 -229 -55 -489
-179 -685 -328 -95 -71 -132 -104 -283 -254 -62 -62 -117 -112 -122 -110 -4 2
-75 68 -157 148 -81 80 -166 159 -188 175 -22 16 -42 33 -45 36 -12 14 -191
129 -260 167 -128 69 -335 147 -473 178 -39 9 -180 34 -222 40 -44 6 -322 14
-327 9z m267 -410 c286 -26 583 -149 810 -335 39 -32 165 -152 280 -267 219
-218 241 -233 324 -233 66 0 104 29 321 244 118 116 240 232 270 257 181 148
412 257 660 310 87 19 136 23 285 24 199 0 244 -5 390 -40 183 -45 332 -112
492 -222 162 -110 263 -209 399 -390 32 -43 103 -169 135 -238 30 -67 85 -224
93 -265 2 -14 9 -47 16 -75 17 -76 25 -167 25 -305 0 -118 -10 -253 -19 -268
-2 -4 -7 -25 -10 -47 -18 -116 -96 -318 -177 -457 -91 -157 -162 -233 -918
-986 -416 -414 -1029 -1026 -1364 -1360 l-607 -607 -1363 1364 c-749 749
-1381 1386 -1404 1415 -164 207 -275 466 -316 735 -20 133 -15 378 11 506 85
420 316 766 665 996 204 135 462 227 690 245 40 4 73 7 74 8 4 4 171 -2 238
-9z"/>
</g>
</svg>
