<?xml version="1.0" standalone="no"?>
<!DOCTYPE svg PUBLIC "-//W3C//DTD SVG 20010904//EN"
 "http://www.w3.org/TR/2001/REC-SVG-20010904/DTD/svg10.dtd">
<svg version="1.0" xmlns="http://www.w3.org/2000/svg"
 width="1056.000000pt" height="1056.000000pt" viewBox="0 0 1056.000000 1056.000000"
 preserveAspectRatio="xMidYMid meet">
<metadata>
Created by potrace 1.14, written by Peter Selinger 2001-2017
</metadata>
<g transform="translate(0.000000,1056.000000) scale(0.100000,-0.100000)"
fill="#000000" stroke="none">
<path d="M2999 9755 c-2 -2 -40 -6 -84 -9 -44 -3 -91 -8 -105 -9 -14 -2 -50
-8 -80 -12 -30 -4 -64 -9 -75 -11 -11 -2 -31 -6 -45 -9 -34 -7 -57 -11 -115
-25 -27 -6 -61 -13 -75 -15 -14 -2 -38 -8 -55 -14 -16 -6 -75 -24 -130 -41
-55 -17 -107 -34 -115 -37 -8 -3 -19 -7 -25 -9 -5 -1 -28 -10 -50 -19 -67 -29
-90 -38 -100 -40 -26 -6 -305 -148 -360 -184 -22 -14 -43 -24 -47 -23 -5 1 -8
-3 -8 -8 0 -6 -7 -10 -15 -10 -8 0 -15 -4 -15 -8 0 -5 -12 -14 -27 -21 -25
-12 -222 -151 -249 -176 -6 -5 -33 -28 -60 -50 -150 -122 -323 -298 -449 -456
-116 -146 -124 -157 -118 -163 4 -3 2 -6 -4 -6 -5 0 -18 -16 -29 -35 -10 -19
-22 -35 -26 -35 -3 0 -10 -9 -13 -20 -3 -11 -12 -26 -19 -32 -15 -16 -130
-221 -173 -308 -95 -196 -171 -398 -219 -582 -1 -5 -3 -10 -4 -13 -1 -3 -3 -8
-4 -12 -8 -32 -17 -72 -21 -90 -3 -13 -7 -33 -10 -45 -3 -13 -7 -34 -10 -48
-4 -26 -11 -69 -20 -110 -7 -32 -16 -96 -20 -135 -1 -16 -6 -66 -11 -110 -16
-153 -9 -545 11 -691 6 -38 12 -86 20 -141 3 -21 13 -69 21 -108 15 -68 19
-86 28 -140 3 -13 7 -29 11 -35 3 -5 8 -20 11 -32 8 -34 9 -38 29 -103 10 -33
19 -63 21 -67 1 -5 2 -9 4 -10 1 -2 3 -10 5 -20 5 -26 106 -272 117 -286 6 -6
8 -12 5 -12 -4 0 20 -51 52 -113 73 -140 119 -223 136 -243 9 -10 50 -74 81
-126 6 -10 18 -26 27 -36 10 -10 17 -22 17 -25 0 -4 8 -15 18 -25 9 -11 26
-32 37 -47 11 -16 31 -42 45 -59 121 -148 76 -102 1300 -1336 1337 -1349 1833
-1843 1895 -1891 80 -62 224 -157 310 -206 149 -83 412 -185 540 -209 49 -10
54 -11 60 -14 3 -1 13 -3 23 -4 9 -1 23 -5 30 -10 7 -4 16 -6 18 -3 3 2 22 1
42 -4 121 -29 538 -32 678 -5 12 3 37 7 55 10 38 6 140 29 209 46 25 7 50 13
55 14 6 2 17 6 25 9 8 3 49 18 90 33 41 15 103 40 138 56 34 15 64 28 66 28 8
0 174 94 226 128 81 53 203 143 221 164 9 10 20 18 25 18 8 0 399 392 1859
1865 1211 1221 1172 1182 1257 1290 32 41 51 65 63 79 6 6 26 34 45 61 19 28
38 52 42 53 5 2 8 10 8 17 0 7 4 15 8 17 11 4 142 214 142 227 0 5 4 11 8 13
18 7 192 383 192 414 0 8 5 14 10 14 6 0 9 3 8 8 -1 4 9 39 22 77 13 39 25 72
25 75 6 28 28 99 35 115 8 18 36 140 65 275 5 22 18 112 21 139 2 19 6 49 8
67 15 92 20 200 20 404 0 226 -7 331 -31 485 -3 22 -7 49 -8 61 -4 34 -26 137
-35 169 -5 17 -12 44 -15 60 -3 17 -7 35 -9 42 -1 7 -5 15 -8 19 -4 3 -4 12
-2 19 3 7 1 16 -5 20 -6 3 -11 14 -11 25 0 10 -12 51 -26 92 -14 40 -26 79
-26 86 -1 6 -4 12 -8 12 -3 0 -6 8 -7 18 -1 9 -9 34 -17 54 -9 21 -17 41 -17
45 0 5 -5 14 -11 21 -6 6 -7 12 -4 12 4 0 0 10 -8 22 -9 12 -16 30 -16 40 0
10 -4 18 -10 18 -5 0 -10 7 -10 15 0 15 -96 206 -138 275 -12 19 -25 42 -29
50 -10 23 -116 183 -130 198 -7 7 -13 17 -13 22 0 5 -6 15 -13 22 -7 7 -35 42
-62 78 -145 190 -387 432 -563 565 -7 6 -21 17 -31 25 -19 16 -26 21 -103 72
-27 17 -48 35 -48 39 0 5 -6 9 -14 9 -8 0 -21 6 -28 13 -18 16 -46 34 -78 49
-14 7 -27 15 -30 18 -10 13 -246 139 -270 145 -3 0 -27 11 -55 24 -87 40 -108
49 -205 84 -102 38 -249 84 -290 91 -14 2 -26 5 -27 7 -2 1 -6 2 -10 3 -77 19
-100 24 -203 42 -114 21 -138 25 -185 30 -22 2 -67 7 -100 11 -139 15 -556 8
-691 -13 -17 -3 -46 -7 -65 -9 -19 -2 -44 -6 -55 -9 -12 -2 -37 -7 -55 -10
-32 -5 -159 -31 -204 -42 -11 -3 -27 -7 -35 -9 -8 -2 -15 -4 -15 -5 0 -1 -8
-3 -17 -5 -10 -2 -50 -13 -90 -26 -40 -13 -76 -24 -80 -25 -5 -1 -11 -3 -15
-4 -5 -1 -11 -2 -15 -1 -5 0 -8 -4 -8 -10 0 -5 -5 -7 -10 -4 -6 4 -16 2 -23
-3 -7 -6 -31 -16 -54 -23 -24 -6 -43 -17 -43 -22 0 -6 -3 -8 -6 -5 -6 7 -88
-25 -182 -71 -34 -17 -66 -31 -71 -31 -5 0 -11 -3 -13 -7 -1 -5 -21 -17 -43
-28 -22 -10 -80 -43 -128 -72 -49 -29 -92 -53 -97 -53 -4 0 -10 -3 -12 -7 -1
-5 -23 -21 -48 -38 -25 -16 -47 -32 -50 -35 -3 -3 -31 -23 -62 -44 -32 -22
-58 -43 -58 -48 0 -4 -6 -8 -14 -8 -8 0 -16 -4 -18 -8 -1 -4 -22 -23 -45 -41
-41 -33 -43 -33 -68 -17 -14 9 -25 21 -25 26 0 6 -6 10 -14 10 -8 0 -16 4 -18
8 -1 5 -30 28 -63 53 -33 24 -61 47 -63 52 -2 4 -9 7 -17 7 -7 0 -18 6 -24 14
-15 17 -245 163 -247 156 -1 -3 -10 2 -20 11 -21 18 -234 125 -304 153 -25 10
-56 23 -70 29 -14 5 -29 11 -35 13 -5 2 -61 21 -123 43 -100 35 -301 90 -387
106 -16 3 -40 8 -52 10 -46 10 -79 15 -118 20 -22 3 -56 8 -75 10 -19 3 -57 8
-85 11 -61 6 -511 14 -516 9z m163 -1280 c11 12 265 -2 333 -18 11 -3 40 -8
65 -11 25 -3 86 -18 135 -31 50 -14 97 -27 105 -29 14 -4 87 -31 135 -51 11
-5 22 -9 25 -10 15 -3 181 -88 215 -110 22 -14 47 -28 55 -32 8 -3 17 -9 20
-12 3 -3 25 -20 50 -36 25 -16 47 -32 50 -35 3 -3 30 -25 60 -48 30 -24 154
-141 276 -261 206 -204 226 -221 305 -259 46 -23 95 -43 109 -46 14 -3 42 -10
62 -15 38 -9 213 -7 256 3 46 10 148 50 172 66 14 9 43 29 65 43 22 15 123
110 224 212 101 102 185 185 187 185 2 0 19 15 38 33 18 17 44 39 56 47 12 8
34 25 48 38 15 12 43 32 62 44 19 12 37 25 40 28 3 3 37 24 75 46 268 154 567
245 846 258 30 1 60 5 65 9 6 3 16 2 23 -2 7 -5 28 -5 47 -1 18 4 35 6 38 3 2
-3 40 -7 83 -9 72 -4 138 -11 138 -14 0 -1 20 -3 44 -5 24 -2 58 -9 75 -14 17
-5 50 -13 73 -16 24 -4 45 -11 49 -16 3 -5 10 -7 15 -3 5 3 16 0 24 -6 8 -7
15 -10 15 -6 0 4 14 0 30 -9 17 -9 30 -13 30 -10 0 3 14 -1 30 -10 17 -9 30
-13 30 -10 0 4 12 0 28 -9 15 -8 43 -21 62 -29 19 -9 46 -21 60 -27 38 -16
190 -100 200 -110 3 -3 34 -25 70 -49 36 -25 67 -47 70 -50 3 -4 34 -31 70
-61 36 -30 98 -88 139 -130 76 -77 241 -289 241 -309 0 -6 5 -11 11 -11 5 0 8
-4 4 -9 -3 -5 -1 -12 5 -16 6 -3 20 -25 31 -48 12 -23 27 -45 33 -49 6 -4 8
-8 4 -8 -3 0 9 -32 28 -70 19 -39 34 -73 34 -76 0 -2 7 -21 16 -42 10 -20 18
-41 19 -47 1 -5 10 -32 20 -60 9 -27 19 -57 21 -65 2 -8 9 -35 15 -60 6 -25
13 -52 14 -60 1 -8 5 -26 9 -40 10 -41 25 -160 30 -238 2 -29 6 -55 9 -58 3
-3 1 -19 -3 -35 -5 -16 -5 -31 0 -34 5 -3 5 -16 0 -30 -6 -17 -6 -25 1 -25 6
0 7 -5 3 -11 -3 -6 -8 -46 -10 -88 -1 -42 -5 -90 -8 -107 -4 -16 -9 -51 -12
-79 -3 -27 -11 -68 -17 -90 -5 -22 -12 -49 -14 -60 -2 -11 -13 -51 -25 -90
-12 -38 -23 -72 -23 -75 -2 -12 -28 -86 -34 -95 -3 -5 -6 -12 -7 -15 -5 -25
-77 -174 -86 -178 -5 -2 -8 -10 -8 -17 0 -7 -16 -36 -35 -65 -19 -29 -35 -54
-35 -56 0 -7 -44 -68 -55 -76 -5 -4 -7 -8 -2 -8 4 0 -1 -8 -10 -19 -10 -10
-29 -33 -43 -51 -46 -61 -103 -122 -328 -349 -123 -124 -268 -272 -324 -328
-55 -57 -104 -103 -109 -103 -4 0 -9 -5 -11 -10 -2 -6 -283 -293 -625 -638
-1380 -1391 -1658 -1668 -1658 -1652 0 2 -18 -8 -40 -22 -68 -42 -235 -115
-235 -103 0 3 -12 0 -27 -6 -26 -10 -93 -21 -135 -23 -10 0 -18 -5 -18 -10 0
-6 -5 -5 -11 1 -7 7 -21 8 -39 3 -16 -5 -31 -6 -34 -3 -2 3 -33 7 -68 9 -35 3
-70 6 -78 8 -8 2 -34 7 -58 11 -23 4 -45 12 -48 16 -3 5 -14 9 -25 9 -24 0
-139 51 -179 80 -17 12 -30 18 -30 13 0 -4 -4 -3 -8 2 -4 6 -25 23 -47 39 -39
28 -485 475 -1770 1771 -338 341 -745 752 -904 913 -160 160 -288 292 -285
292 3 0 -5 11 -18 24 -28 28 -56 62 -84 102 -43 59 -124 183 -124 187 0 3 -15
31 -33 64 -43 77 -126 277 -143 343 -2 8 -10 40 -18 70 -17 63 -26 104 -31
140 -2 14 -9 53 -15 88 -6 35 -8 67 -5 72 4 6 3 10 -2 10 -4 0 -8 30 -8 66 0
36 -3 70 -6 76 -4 6 -3 24 1 39 5 17 5 31 -1 35 -5 3 -6 10 -3 16 4 6 8 40 9
77 3 84 13 167 31 256 8 39 16 79 18 90 2 11 6 27 10 35 3 8 7 26 10 40 5 29
33 115 46 145 5 11 19 45 30 75 24 64 104 223 131 262 11 14 19 31 19 37 0 6
5 11 10 11 6 0 10 7 10 15 0 8 4 15 8 15 4 0 16 15 27 33 10 17 21 34 24 37 3
3 19 23 36 45 52 70 246 275 260 275 3 0 18 12 33 26 15 14 39 33 55 42 15 9
27 20 27 24 0 4 5 8 10 8 6 0 18 7 28 16 37 34 303 185 332 189 7 1 120 43
145 54 50 22 228 66 300 75 22 2 40 5 40 6 0 3 55 8 128 13 32 3 60 7 64 10 3
4 13 2 23 -3 10 -5 19 -7 22 -5z"/>
</g>
</svg>
